<?xml version="1.0" encoding="UTF-8" standalone="no"?>
<!-- Generator: Adobe Illustrator 19.0.0, SVG Export Plug-In . SVG Version: 6.00 Build 0)  -->

<svg
   xmlns:dc="http://purl.org/dc/elements/1.1/"
   xmlns:cc="http://creativecommons.org/ns#"
   xmlns:rdf="http://www.w3.org/1999/02/22-rdf-syntax-ns#"
   xmlns:svg="http://www.w3.org/2000/svg"
   xmlns="http://www.w3.org/2000/svg"
   xmlns:sodipodi="http://sodipodi.sourceforge.net/DTD/sodipodi-0.dtd"
   xmlns:inkscape="http://www.inkscape.org/namespaces/inkscape"
   version="1.1"
   id="Layer_1"
   x="0px"
   y="0px"
   viewBox="0 0 508 508"
   style="enable-background:new 0 0 508 508;"
   xml:space="preserve"
   sodipodi:docname="certified.svg"
   inkscape:version="0.92.3 (2405546, 2018-03-11)"><metadata
   id="metadata3821"><rdf:RDF><cc:Work
       rdf:about=""><dc:format>image/svg+xml</dc:format><dc:type
         rdf:resource="http://purl.org/dc/dcmitype/StillImage" /></cc:Work></rdf:RDF></metadata><defs
   id="defs3819" /><sodipodi:namedview
   pagecolor="#ffffff"
   bordercolor="#666666"
   borderopacity="1"
   objecttolerance="10"
   gridtolerance="10"
   guidetolerance="10"
   inkscape:pageopacity="0"
   inkscape:pageshadow="2"
   inkscape:window-width="1920"
   inkscape:window-height="1017"
   id="namedview3817"
   showgrid="false"
   inkscape:zoom="1.6692913"
   inkscape:cx="156.6533"
   inkscape:cy="277.96226"
   inkscape:window-x="-8"
   inkscape:window-y="-8"
   inkscape:window-maximized="1"
   inkscape:current-layer="Layer_1" />
<polygon
   style="fill:#e8ddcb;fill-opacity:1"
   points="417.4,245.5 466.7,208.1 417.4,170.6 445.7,115.5 385,103.3 386.6,41.3 326.7,56.6 301.3,0   254,40 206.7,0 181.3,56.6 121.4,41.2 123,103.3 62.3,115.5 90.6,170.6 41.3,208.1 90.6,245.5 62.3,300.7 123,312.9 121.4,374.9   181.3,359.6 206.7,416.2 254,376.2 301.3,416.2 326.7,359.6 386.6,374.9 385,312.9 445.7,300.7 "
   id="polygon3768" />
<g
   id="g3774"
   style="fill:#ff5555">
	<polygon
   style="fill:#ff5555"
   points="181.3,359.6 121.4,374.9 122.8,318.8 111,339.8 46.3,454.3 120.2,433.8 140.7,508    193.6,414.5 200.4,402.3  "
   id="polygon3770" />
	<polygon
   style="fill:#ff5555"
   points="396.9,336.1 385.1,315.1 386.6,374.9 326.7,359.6 308.4,400.3 315.3,412.5 369.3,508    389.8,433.8 463.7,454.3  "
   id="polygon3772" />
</g>
<g
   id="g3780"
   style="fill:#c83737">
	<polygon
   style="fill:#c83737"
   points="200.4,402.3 193.6,414.5 174.9,372.9 109.7,389.6 111,339.8 122.8,318.8 121.4,374.9    181.3,359.6  "
   id="polygon3776" />
	<polygon
   style="fill:#c83737"
   points="398.3,389.6 333.1,372.9 315.3,412.5 308.4,400.3 326.7,359.6 386.6,374.9 385.1,315.1    396.9,336.1  "
   id="polygon3778" />
</g>
<ellipse
   style="fill:#cdb380;fill-opacity:1"
   cx="254"
   cy="208.1"
   rx="132.1"
   ry="132.5"
   id="ellipse3782" />
<polygon
   style="fill:#F2F2F2;"
   points="222.5,276.3 172.6,226.3 195.7,203.1 222.5,230 312.3,139.8 335.4,163 "
   id="polygon3784" />
<g
   id="g3786">
</g>
<g
   id="g3788">
</g>
<g
   id="g3790">
</g>
<g
   id="g3792">
</g>
<g
   id="g3794">
</g>
<g
   id="g3796">
</g>
<g
   id="g3798">
</g>
<g
   id="g3800">
</g>
<g
   id="g3802">
</g>
<g
   id="g3804">
</g>
<g
   id="g3806">
</g>
<g
   id="g3808">
</g>
<g
   id="g3810">
</g>
<g
   id="g3812">
</g>
<g
   id="g3814">
</g>
</svg>